<svg xmlns="http://www.w3.org/2000/svg" viewBox="0 0 320 420" role="img" aria-label="Al Saqar automation — hub and spoke workflow diagram">
  <rect width="320" height="420" fill="#ffffff"/>
  <!-- faint grid -->
  <g stroke="#000000" stroke-opacity="0.06">
    <path d="M40 0V420M80 0V420M120 0V420M160 0V420M200 0V420M240 0V420M280 0V420"/>
    <path d="M0 40H320M0 80H320M0 120H320M0 160H320M0 200H320M0 240H320M0 280H320M0 320H320M0 360H320"/>
  </g>
  <!-- spokes -->
  <g stroke="#000000" stroke-width="2">
    <path d="M160 210 L60 80"/>
    <path d="M160 210 L160 62"/>
    <path d="M160 210 L260 80"/>
    <path d="M160 210 L48 210"/>
    <path d="M160 210 L272 210"/>
    <path d="M160 210 L60 340"/>
    <path d="M160 210 L160 358"/>
    <path d="M160 210 L260 340"/>
  </g>
  <!-- spoke nodes -->
  <g fill="#ffffff" stroke="#000000" stroke-width="3">
    <rect x="38" y="58" width="44" height="44"/>
    <rect x="138" y="40" width="44" height="44"/>
    <rect x="238" y="58" width="44" height="44"/>
    <rect x="26" y="188" width="44" height="44"/>
    <rect x="250" y="188" width="44" height="44"/>
    <rect x="38" y="318" width="44" height="44"/>
    <rect x="138" y="336" width="44" height="44"/>
    <rect x="238" y="318" width="44" height="44"/>
  </g>
  <!-- hub -->
  <rect x="118" y="168" width="84" height="84" fill="#000000"/>
  <text x="160" y="204" fill="#ffffff" font-family="Arial, Helvetica, sans-serif" font-size="13" font-weight="700" text-anchor="middle" letter-spacing="2">AI</text>
  <text x="160" y="222" fill="#ffffff" font-family="Arial, Helvetica, sans-serif" font-size="9" font-weight="700" text-anchor="middle" letter-spacing="1">ENGINE</text>
  <!-- spoke glyphs -->
  <g fill="#000000" font-family="Arial, Helvetica, sans-serif" font-size="8" font-weight="700" text-anchor="middle" letter-spacing="0.5">
    <text x="60" y="84">CHAT</text>
    <text x="160" y="66">MAIL</text>
    <text x="260" y="84">FORM</text>
    <text x="48" y="214">WA</text>
    <text x="272" y="214">IG·FB</text>
    <text x="60" y="344">LEADS</text>
    <text x="160" y="362">BOOK</text>
    <text x="260" y="344">STATS</text>
  </g>
  <!-- corner marks -->
  <g stroke="#000000" stroke-width="4">
    <path d="M12 12h18M12 12v18"/>
    <path d="M308 12h-18M308 12v18"/>
    <path d="M12 408h18M12 408v-18"/>
    <path d="M308 408h-18M308 408v-18"/>
  </g>
  <text x="160" y="402" fill="#000000" font-family="Arial, Helvetica, sans-serif" font-size="8" font-weight="700" text-anchor="middle" letter-spacing="3">N8N // 12 WORKFLOWS // ASIA-DUBAI</text>
</svg>
